<svg viewBox="0 0 110 17" fill="none" xmlns="http://www.w3.org/2000/svg">
    <path d="M9.77344 7.17969C9.77344 8.46615 9.53385 9.54167 9.05469 10.4062C8.57552 11.2656 7.88021 11.9141 6.96875 12.3516C6.05729 12.7839 4.95833 13 3.67188 13H0.5V1.57812H4.01562C5.19792 1.57812 6.21875 1.79167 7.07812 2.21875C7.9375 2.64062 8.60156 3.26823 9.07031 4.10156C9.53906 4.92969 9.77344 5.95573 9.77344 7.17969ZM7.82031 7.23438C7.82031 6.29688 7.67188 5.52604 7.375 4.92188C7.08333 4.31771 6.65104 3.86979 6.07812 3.57812C5.51042 3.28125 4.8099 3.13281 3.97656 3.13281H2.375V11.4297H3.70312C5.08333 11.4297 6.11458 11.0781 6.79688 10.375C7.47917 9.67188 7.82031 8.625 7.82031 7.23438ZM15.4375 4.1875C16.5312 4.1875 17.3568 4.42969 17.9141 4.91406C18.4766 5.39844 18.7578 6.15365 18.7578 7.17969V13H17.4531L17.1016 11.7734H17.0391C16.7943 12.0859 16.5417 12.3438 16.2812 12.5469C16.0208 12.75 15.7188 12.901 15.375 13C15.0365 13.1042 14.6224 13.1562 14.1328 13.1562C13.6172 13.1562 13.1562 13.0625 12.75 12.875C12.3438 12.6823 12.0234 12.3906 11.7891 12C11.5547 11.6094 11.4375 11.1146 11.4375 10.5156C11.4375 9.625 11.7682 8.95573 12.4297 8.50781C13.0964 8.0599 14.1016 7.8125 15.4453 7.76562L16.9453 7.71094V7.25781C16.9453 6.65885 16.8047 6.23177 16.5234 5.97656C16.2474 5.72135 15.8568 5.59375 15.3516 5.59375C14.9193 5.59375 14.5 5.65625 14.0938 5.78125C13.6875 5.90625 13.2917 6.0599 12.9062 6.24219L12.3125 4.94531C12.7344 4.72135 13.2135 4.53906 13.75 4.39844C14.2917 4.25781 14.8542 4.1875 15.4375 4.1875ZM16.9375 8.86719L15.8203 8.90625C14.9036 8.9375 14.2604 9.09375 13.8906 9.375C13.5208 9.65625 13.3359 10.0417 13.3359 10.5312C13.3359 10.9583 13.4635 11.2708 13.7188 11.4688C13.974 11.6615 14.3099 11.7578 14.7266 11.7578C15.362 11.7578 15.888 11.5781 16.3047 11.2188C16.7266 10.8542 16.9375 10.3203 16.9375 9.61719V8.86719ZM23.3047 13L20.0156 4.35156H21.9609L23.7422 9.42969C23.8568 9.7526 23.9609 10.1016 24.0547 10.4766C24.1484 10.8516 24.2135 11.1667 24.25 11.4219H24.3125C24.349 11.1562 24.4193 10.8385 24.5234 10.4688C24.6276 10.0938 24.7344 9.7474 24.8438 9.42969L26.625 4.35156H28.5625L25.2734 13H23.3047ZM31.7109 4.35156V13H29.875V4.35156H31.7109ZM30.8047 1.03906C31.0859 1.03906 31.3281 1.11458 31.5312 1.26562C31.7396 1.41667 31.8438 1.67708 31.8438 2.04688C31.8438 2.41146 31.7396 2.67188 31.5312 2.82812C31.3281 2.97917 31.0859 3.05469 30.8047 3.05469C30.513 3.05469 30.2656 2.97917 30.0625 2.82812C29.8646 2.67188 29.7656 2.41146 29.7656 2.04688C29.7656 1.67708 29.8646 1.41667 30.0625 1.26562C30.2656 1.11458 30.513 1.03906 30.8047 1.03906ZM37.25 13.1562C36.2188 13.1562 35.3906 12.7812 34.7656 12.0312C34.1458 11.276 33.8359 10.1641 33.8359 8.69531C33.8359 7.21094 34.151 6.08854 34.7812 5.32812C35.4167 4.56771 36.2526 4.1875 37.2891 4.1875C37.7266 4.1875 38.1094 4.2474 38.4375 4.36719C38.7656 4.48177 39.0469 4.63802 39.2812 4.83594C39.5208 5.03385 39.724 5.25521 39.8906 5.5H39.9766C39.9505 5.33854 39.9193 5.10677 39.8828 4.80469C39.8516 4.4974 39.8359 4.21354 39.8359 3.95312V0.84375H41.6797V13H40.2422L39.9141 11.8203H39.8359C39.6797 12.0703 39.4818 12.2969 39.2422 12.5C39.0078 12.6979 38.7266 12.8568 38.3984 12.9766C38.0755 13.0964 37.6927 13.1562 37.25 13.1562ZM37.7656 11.6641C38.5521 11.6641 39.1068 11.4375 39.4297 10.9844C39.7526 10.5312 39.9193 9.85156 39.9297 8.94531V8.70312C39.9297 7.73438 39.7734 6.99219 39.4609 6.47656C39.1484 5.95573 38.5781 5.69531 37.75 5.69531C37.0885 5.69531 36.5833 5.96354 36.2344 6.5C35.8906 7.03125 35.7188 7.77344 35.7188 8.72656C35.7188 9.67969 35.8906 10.4089 36.2344 10.9141C36.5833 11.4141 37.0938 11.6641 37.7656 11.6641ZM57.9297 7.17969C57.9297 8.46615 57.6901 9.54167 57.2109 10.4062C56.7318 11.2656 56.0365 11.9141 55.125 12.3516C54.2135 12.7839 53.1146 13 51.8281 13H48.6562V1.57812H52.1719C53.3542 1.57812 54.375 1.79167 55.2344 2.21875C56.0938 2.64062 56.7578 3.26823 57.2266 4.10156C57.6953 4.92969 57.9297 5.95573 57.9297 7.17969ZM55.9766 7.23438C55.9766 6.29688 55.8281 5.52604 55.5312 4.92188C55.2396 4.31771 54.8073 3.86979 54.2344 3.57812C53.6667 3.28125 52.9661 3.13281 52.1328 3.13281H50.5312V11.4297H51.8594C53.2396 11.4297 54.2708 11.0781 54.9531 10.375C55.6354 9.67188 55.9766 8.625 55.9766 7.23438ZM67.8594 8.65625C67.8594 9.375 67.7656 10.013 67.5781 10.5703C67.3906 11.1276 67.1172 11.599 66.7578 11.9844C66.3984 12.3646 65.9661 12.6562 65.4609 12.8594C64.9557 13.0573 64.3854 13.1562 63.75 13.1562C63.1562 13.1562 62.612 13.0573 62.1172 12.8594C61.6224 12.6562 61.1927 12.3646 60.8281 11.9844C60.4688 11.599 60.1901 11.1276 59.9922 10.5703C59.7943 10.013 59.6953 9.375 59.6953 8.65625C59.6953 7.70312 59.8594 6.89583 60.1875 6.23438C60.5208 5.56771 60.9948 5.0599 61.6094 4.71094C62.224 4.36198 62.9557 4.1875 63.8047 4.1875C64.6016 4.1875 65.3047 4.36198 65.9141 4.71094C66.5234 5.0599 67 5.56771 67.3438 6.23438C67.6875 6.90104 67.8594 7.70833 67.8594 8.65625ZM61.5859 8.65625C61.5859 9.28646 61.6615 9.82552 61.8125 10.2734C61.9688 10.7214 62.2083 11.0651 62.5312 11.3047C62.8542 11.5391 63.2708 11.6562 63.7812 11.6562C64.2917 11.6562 64.7083 11.5391 65.0312 11.3047C65.3542 11.0651 65.5911 10.7214 65.7422 10.2734C65.8932 9.82552 65.9688 9.28646 65.9688 8.65625C65.9688 8.02604 65.8932 7.49219 65.7422 7.05469C65.5911 6.61198 65.3542 6.27604 65.0312 6.04688C64.7083 5.8125 64.2891 5.69531 63.7734 5.69531C63.013 5.69531 62.4583 5.95052 62.1094 6.46094C61.7604 6.97135 61.5859 7.70312 61.5859 8.65625ZM77.0391 12.9922L75.9453 8.96875C75.8932 8.77083 75.8307 8.53125 75.7578 8.25C75.6849 7.96875 75.612 7.67969 75.5391 7.38281C75.4661 7.08073 75.3984 6.80208 75.3359 6.54688C75.2786 6.29167 75.2344 6.09375 75.2031 5.95312H75.1406C75.1146 6.09375 75.0729 6.29167 75.0156 6.54688C74.9583 6.80208 74.8932 7.08073 74.8203 7.38281C74.7474 7.6849 74.6745 7.97917 74.6016 8.26562C74.5339 8.55208 74.4714 8.79688 74.4141 9L73.2656 12.9922H71.25L68.8281 4.34375H70.6875L71.8125 8.64062C71.8854 8.93229 71.9557 9.2474 72.0234 9.58594C72.0964 9.92448 72.1589 10.2474 72.2109 10.5547C72.263 10.862 72.3021 11.1146 72.3281 11.3125H72.3906C72.4115 11.1719 72.4401 10.9948 72.4766 10.7812C72.513 10.5625 72.5547 10.3359 72.6016 10.1016C72.6484 9.86198 72.6953 9.63802 72.7422 9.42969C72.7891 9.21615 72.8333 9.04427 72.875 8.91406L74.2031 4.34375H76.2109L77.4844 8.91406C77.5417 9.11198 77.6042 9.36198 77.6719 9.66406C77.7396 9.96094 77.7995 10.2604 77.8516 10.5625C77.9089 10.8594 77.9453 11.1068 77.9609 11.3047H78.0234C78.0443 11.1276 78.0807 10.888 78.1328 10.5859C78.1901 10.2786 78.2552 9.95312 78.3281 9.60938C78.401 9.26042 78.4766 8.9375 78.5547 8.64062L79.7031 4.34375H81.5312L79.0938 12.9922H77.0391ZM87.5234 4.1875C88.4974 4.1875 89.2552 4.4401 89.7969 4.94531C90.3438 5.44531 90.6172 6.25 90.6172 7.35938V13H88.7812V7.70312C88.7812 7.03125 88.6432 6.52865 88.3672 6.19531C88.0911 5.85677 87.6641 5.6875 87.0859 5.6875C86.2474 5.6875 85.6641 5.94531 85.3359 6.46094C85.013 6.97656 84.8516 7.72396 84.8516 8.70312V13H83.0156V4.35156H84.4453L84.7031 5.52344H84.8047C84.9922 5.22135 85.224 4.97396 85.5 4.78125C85.7812 4.58333 86.0938 4.4349 86.4375 4.33594C86.7865 4.23698 87.1484 4.1875 87.5234 4.1875ZM96.6328 4.1875C97.4036 4.1875 98.0651 4.34635 98.6172 4.66406C99.1693 4.98177 99.5938 5.43229 99.8906 6.01562C100.188 6.59896 100.336 7.29688 100.336 8.10938V9.09375H94.5625C94.5833 9.93229 94.8073 10.5781 95.2344 11.0312C95.6667 11.4844 96.2708 11.7109 97.0469 11.7109C97.599 11.7109 98.0938 11.6589 98.5312 11.5547C98.974 11.4453 99.4297 11.2865 99.8984 11.0781V12.5703C99.4661 12.7734 99.026 12.9219 98.5781 13.0156C98.1302 13.1094 97.5938 13.1562 96.9688 13.1562C96.1198 13.1562 95.3724 12.9922 94.7266 12.6641C94.0859 12.3307 93.5833 11.8359 93.2188 11.1797C92.8594 10.5234 92.6797 9.70833 92.6797 8.73438C92.6797 7.76562 92.8438 6.94271 93.1719 6.26562C93.5 5.58854 93.9609 5.07292 94.5547 4.71875C95.1484 4.36458 95.8411 4.1875 96.6328 4.1875ZM96.6328 5.57031C96.0547 5.57031 95.5859 5.75781 95.2266 6.13281C94.8724 6.50781 94.6641 7.05729 94.6016 7.78125H98.5391C98.5339 7.34896 98.4609 6.96615 98.3203 6.63281C98.1849 6.29948 97.9766 6.03906 97.6953 5.85156C97.4193 5.66406 97.0651 5.57031 96.6328 5.57031ZM101.102 4.35156H103.102L104.875 9.28906C104.953 9.51302 105.023 9.73438 105.086 9.95312C105.154 10.1667 105.211 10.3776 105.258 10.5859C105.31 10.7943 105.352 11.0026 105.383 11.2109H105.43C105.482 10.9401 105.555 10.638 105.648 10.3047C105.747 9.96615 105.857 9.6276 105.977 9.28906L107.68 4.35156H109.656L105.945 14.1875C105.732 14.75 105.469 15.2292 105.156 15.625C104.849 16.026 104.484 16.3281 104.062 16.5312C103.641 16.7396 103.159 16.8438 102.617 16.8438C102.357 16.8438 102.13 16.8281 101.938 16.7969C101.745 16.7708 101.581 16.7422 101.445 16.7109V15.2422C101.555 15.2682 101.693 15.2917 101.859 15.3125C102.026 15.3333 102.198 15.3438 102.375 15.3438C102.703 15.3438 102.987 15.2786 103.227 15.1484C103.466 15.0182 103.669 14.8333 103.836 14.5938C104.003 14.3594 104.141 14.0911 104.25 13.7891L104.555 12.9766L101.102 4.35156Z" fill="#E2E8F0"/>
</svg>
